<svg width="449" height="54" viewBox="0 0 449 54" fill="none" xmlns="http://www.w3.org/2000/svg">
<path d="M244 35C244 42.1797 239.299 48 233.5 48C227.701 48 223 42.1797 223 35C223 27.8203 227.701 22 233.5 22C239.299 22 244 27.8203 244 35Z" fill="#FF9999"/>
<path d="M394 35C394 42.1797 389.299 48 383.5 48C377.701 48 373 42.1797 373 35C373 27.8203 377.701 22 383.5 22C389.299 22 394 27.8203 394 35Z" fill="#FF9999"/>
<path d="M440 35C440 42.1797 435.299 48 429.5 48C423.701 48 419 42.1797 419 35C419 27.8203 423.701 22 429.5 22C435.299 22 440 27.8203 440 35Z" fill="#FF9999"/>
<path d="M286 35C286 42.1797 281.299 48 275.5 48C269.701 48 265 42.1797 265 35C265 27.8203 269.701 22 275.5 22C281.299 22 286 27.8203 286 35Z" fill="#FF9999"/>
<path d="M82.0002 35C82.0002 42.1797 77.2992 48 71.5002 48C65.7012 48 61.0002 42.1797 61.0002 35C61.0002 27.8203 65.7012 22 71.5002 22C77.2992 22 82.0002 27.8203 82.0002 35Z" fill="#FF9999"/>
<path d="M37.0002 27.5C37.0002 39.9264 29.3891 50 20.0002 50C10.6114 50 3.00021 39.9264 3.00021 27.5C3.00021 15.0736 10.6114 5 20.0002 5C29.3891 5 37.0002 15.0736 37.0002 27.5Z" fill="#FF9999"/>
<path d="M188.5 5.5C197.337 5.5 204.5 11.0964 204.5 18C204.5 24.9036 197.337 30.5 188.5 30.5C179.664 30.5 172.5 24.9036 172.5 18C172.5 11.0964 179.664 5.5 188.5 5.5Z" fill="#FF9999"/>
<path d="M0.616211 53V2.24H19.0482C24.8562 2.24 29.7522 3.248 33.7362 5.264C37.7682 7.232 40.8162 10.112 42.8802 13.904C44.9442 17.648 45.9762 22.208 45.9762 27.584C45.9762 32.912 44.9442 37.472 42.8802 41.264C40.8162 45.056 37.7682 47.96 33.7362 49.976C29.7522 51.992 24.8562 53 19.0482 53H0.616211ZM9.90421 45.296H18.4722C24.6162 45.296 29.1762 43.832 32.1522 40.904C35.1282 37.976 36.6162 33.536 36.6162 27.584C36.6162 21.584 35.1282 17.144 32.1522 14.264C29.1762 11.336 24.6162 9.872 18.4722 9.872H9.90421V45.296Z" fill="white"/>
<path d="M68.78 53.72C65.612 53.72 62.828 52.976 60.428 51.488C58.028 49.952 56.156 47.768 54.812 44.936C53.468 42.104 52.796 38.72 52.796 34.784C52.796 30.848 53.468 27.488 54.812 24.704C56.156 21.872 58.028 19.712 60.428 18.224C62.828 16.688 65.612 15.92 68.78 15.92C71.852 15.92 74.54 16.688 76.844 18.224C79.196 19.712 80.756 21.728 81.524 24.272H80.732L81.524 16.64H90.164C90.02 18.128 89.876 19.64 89.732 21.176C89.636 22.712 89.588 24.224 89.588 25.712V53H80.66L80.588 45.512H81.452C80.684 48.008 79.124 50 76.772 51.488C74.42 52.976 71.756 53.72 68.78 53.72ZM71.3 46.808C74.132 46.808 76.412 45.824 78.14 43.856C79.868 41.84 80.732 38.816 80.732 34.784C80.732 30.752 79.868 27.752 78.14 25.784C76.412 23.816 74.132 22.832 71.3 22.832C68.468 22.832 66.188 23.816 64.46 25.784C62.732 27.752 61.868 30.752 61.868 34.784C61.868 38.816 62.708 41.84 64.388 43.856C66.116 45.824 68.42 46.808 71.3 46.808Z" fill="white"/>
<path d="M99.3164 53V25.928C99.3164 24.392 99.2684 22.832 99.1724 21.248C99.1244 19.664 99.0044 18.128 98.8124 16.64H107.524L108.532 26.576H107.092C107.572 24.176 108.364 22.184 109.468 20.6C110.62 19.016 112.012 17.84 113.644 17.072C115.276 16.304 117.052 15.92 118.972 15.92C119.836 15.92 120.532 15.968 121.06 16.064C121.588 16.112 122.116 16.232 122.644 16.424L122.572 24.344C121.66 23.96 120.868 23.72 120.196 23.624C119.572 23.528 118.78 23.48 117.82 23.48C115.756 23.48 114.004 23.912 112.564 24.776C111.172 25.64 110.116 26.84 109.396 28.376C108.724 29.912 108.388 31.664 108.388 33.632V53H99.3164Z" fill="white"/>
<path d="M127.654 53V0.00799561H136.654V32.12H136.798L151.558 16.64H162.43L144.07 35.864L144.142 32.264L163.726 53H152.566L136.798 36.728H136.654V53H127.654Z" fill="white"/>
<path d="M168.101 53V2.24H190.277C195.845 2.24 200.141 3.56 203.165 6.2C206.237 8.84 207.773 12.512 207.773 17.216C207.773 20.336 207.077 23 205.685 25.208C204.341 27.416 202.397 29.12 199.853 30.32C197.309 31.472 194.309 32.048 190.853 32.048L191.861 30.68H194.309C196.325 30.68 198.125 31.208 199.709 32.264C201.293 33.32 202.589 34.928 203.597 37.088L211.013 53H200.789L193.301 36.512C192.629 34.832 191.597 33.728 190.205 33.2C188.861 32.672 187.229 32.408 185.309 32.408H177.389V53H168.101ZM177.389 25.568H188.765C192.029 25.568 194.501 24.896 196.181 23.552C197.909 22.16 198.773 20.144 198.773 17.504C198.773 14.864 197.909 12.872 196.181 11.528C194.501 10.184 192.029 9.512 188.765 9.512H177.389V25.568Z" fill="white"/>
<path d="M233.437 53.72C229.693 53.72 226.453 52.952 223.717 51.416C220.981 49.88 218.845 47.696 217.309 44.864C215.821 42.032 215.077 38.672 215.077 34.784C215.077 30.896 215.821 27.56 217.309 24.776C218.845 21.944 220.981 19.76 223.717 18.224C226.453 16.688 229.693 15.92 233.437 15.92C237.181 15.92 240.421 16.688 243.157 18.224C245.941 19.76 248.077 21.944 249.565 24.776C251.101 27.56 251.869 30.896 251.869 34.784C251.869 38.672 251.101 42.032 249.565 44.864C248.077 47.696 245.941 49.88 243.157 51.416C240.421 52.952 237.181 53.72 233.437 53.72ZM233.437 46.808C236.269 46.808 238.525 45.824 240.205 43.856C241.885 41.84 242.725 38.816 242.725 34.784C242.725 30.752 241.885 27.752 240.205 25.784C238.525 23.816 236.269 22.832 233.437 22.832C230.605 22.832 228.349 23.816 226.669 25.784C224.989 27.752 224.149 30.752 224.149 34.784C224.149 38.816 224.989 41.84 226.669 43.856C228.349 45.824 230.605 46.808 233.437 46.808Z" fill="white"/>
<path d="M276.047 53.72C272.303 53.72 269.063 52.952 266.327 51.416C263.591 49.88 261.455 47.696 259.919 44.864C258.431 42.032 257.687 38.672 257.687 34.784C257.687 30.896 258.431 27.56 259.919 24.776C261.455 21.944 263.591 19.76 266.327 18.224C269.063 16.688 272.303 15.92 276.047 15.92C279.791 15.92 283.031 16.688 285.767 18.224C288.551 19.76 290.687 21.944 292.175 24.776C293.711 27.56 294.479 30.896 294.479 34.784C294.479 38.672 293.711 42.032 292.175 44.864C290.687 47.696 288.551 49.88 285.767 51.416C283.031 52.952 279.791 53.72 276.047 53.72ZM276.047 46.808C278.879 46.808 281.135 45.824 282.815 43.856C284.495 41.84 285.335 38.816 285.335 34.784C285.335 30.752 284.495 27.752 282.815 25.784C281.135 23.816 278.879 22.832 276.047 22.832C273.215 22.832 270.959 23.816 269.279 25.784C267.599 27.752 266.759 30.752 266.759 34.784C266.759 38.816 267.599 41.84 269.279 43.856C270.959 45.824 273.215 46.808 276.047 46.808Z" fill="white"/>
<path d="M302.24 53V25.712C302.24 24.224 302.192 22.712 302.096 21.176C302 19.64 301.856 18.128 301.664 16.64H310.376L311.096 23.84H310.232C311.24 21.344 312.776 19.4 314.84 18.008C316.952 16.616 319.448 15.92 322.328 15.92C325.208 15.92 327.584 16.616 329.456 18.008C331.376 19.352 332.72 21.464 333.488 24.344H332.336C333.344 21.752 335 19.712 337.304 18.224C339.608 16.688 342.248 15.92 345.224 15.92C349.304 15.92 352.352 17.12 354.368 19.52C356.384 21.92 357.392 25.664 357.392 30.752V53H348.392V31.112C348.392 28.232 347.912 26.168 346.952 24.92C345.992 23.624 344.456 22.976 342.344 22.976C339.848 22.976 337.88 23.864 336.44 25.64C335 27.368 334.28 29.72 334.28 32.696V53H325.28V31.112C325.28 28.232 324.8 26.168 323.84 24.92C322.88 23.624 321.344 22.976 319.232 22.976C316.736 22.976 314.768 23.864 313.328 25.64C311.936 27.368 311.24 29.72 311.24 32.696V53H302.24Z" fill="white"/>
<path d="M381.11 53.72C377.942 53.72 375.134 52.976 372.686 51.488C370.286 49.952 368.414 47.768 367.07 44.936C365.726 42.104 365.054 38.72 365.054 34.784C365.054 30.848 365.726 27.488 367.07 24.704C368.414 21.872 370.286 19.712 372.686 18.224C375.134 16.688 377.942 15.92 381.11 15.92C384.134 15.92 386.798 16.664 389.102 18.152C391.454 19.592 393.014 21.56 393.782 24.056H392.846V0.00799561H401.846V53H392.99V45.296H393.854C393.086 47.888 391.526 49.952 389.174 51.488C386.87 52.976 384.182 53.72 381.11 53.72ZM383.63 46.808C386.462 46.808 388.742 45.824 390.47 43.856C392.198 41.84 393.062 38.816 393.062 34.784C393.062 30.752 392.198 27.752 390.47 25.784C388.742 23.816 386.462 22.832 383.63 22.832C380.798 22.832 378.494 23.816 376.718 25.784C374.99 27.752 374.126 30.752 374.126 34.784C374.126 38.816 374.99 41.84 376.718 43.856C378.494 45.824 380.798 46.808 383.63 46.808Z" fill="white"/>
<path d="M432.454 53.72C429.382 53.72 426.694 52.976 424.39 51.488C422.086 49.952 420.55 47.888 419.782 45.296H420.574V53H411.646V0.00799561H420.646V24.056H419.782C420.598 21.56 422.158 19.592 424.462 18.152C426.766 16.664 429.43 15.92 432.454 15.92C435.67 15.92 438.478 16.688 440.878 18.224C443.278 19.76 445.15 21.944 446.494 24.776C447.838 27.56 448.51 30.92 448.51 34.856C448.51 38.792 447.838 42.176 446.494 45.008C445.15 47.792 443.254 49.952 440.806 51.488C438.406 52.976 435.622 53.72 432.454 53.72ZM429.934 46.808C432.766 46.808 435.046 45.824 436.774 43.856C438.55 41.888 439.438 38.888 439.438 34.856C439.438 30.824 438.55 27.824 436.774 25.856C435.046 23.84 432.766 22.832 429.934 22.832C427.102 22.832 424.822 23.816 423.094 25.784C421.366 27.752 420.502 30.752 420.502 34.784C420.502 38.816 421.366 41.84 423.094 43.856C424.822 45.824 427.102 46.808 429.934 46.808Z" fill="white"/>
</svg>
